<?xml version="1.0" standalone="no"?>
<!DOCTYPE svg PUBLIC "-//W3C//DTD SVG 20010904//EN"
 "http://www.w3.org/TR/2001/REC-SVG-20010904/DTD/svg10.dtd">
<svg version="1.0" xmlns="http://www.w3.org/2000/svg"
 width="860.000000pt" height="623.000000pt" viewBox="0 0 860.000000 623.000000"
 preserveAspectRatio="xMidYMid meet">
<metadata>
Created by potrace 1.16, written by Peter Selinger 2001-2019
</metadata>
<g transform="translate(0.000000,623.000000) scale(0.100000,-0.100000)"
fill="#000000" stroke="none">
<path d="M6940 5816 c-36 -8 -76 -18 -90 -24 -14 -5 -52 -13 -85 -16 -418 -50
-729 -257 -908 -604 -165 -318 -228 -642 -282 -1447 -44 -642 -83 -960 -148
-1195 l-24 -85 -34 1 c-19 0 -97 10 -175 22 -651 100 -1639 1 -2371 -239 -487
-160 -720 -341 -605 -470 l29 -32 294 76 c678 177 1052 249 1479 287 195 18
560 8 715 -19 444 -77 752 -258 980 -576 49 -69 115 -183 115 -200 0 -3 -24
14 -53 38 -284 231 -803 367 -1472 384 -641 16 -1259 -103 -1570 -302 -37 -23
-38 -25 -10 -18 61 16 197 8 270 -16 38 -12 80 -28 93 -35 19 -10 44 -9 130 5
229 36 355 44 687 44 419 0 679 -25 1033 -100 l123 -26 50 45 c231 208 671 54
854 -298 17 -34 34 -72 38 -86 l7 -25 21 30 c33 48 78 150 99 228 126 445 2
1025 -245 1149 -22 11 -41 22 -43 23 -2 1 6 47 17 101 33 166 51 382 61 759
18 656 30 928 45 1075 50 472 150 753 335 941 121 122 273 195 450 214 62 6
66 5 90 -20 42 -46 106 -84 164 -99 47 -13 64 -13 107 -2 157 41 240 290 141
430 -54 78 -178 110 -312 82z"/>
<path d="M2745 4984 c-465 -36 -753 -100 -987 -221 -551 -283 -603 -842 -145
-1573 208 -333 552 -707 818 -890 40 -27 74 -48 76 -47 2 2 -90 168 -204 368
-226 399 -450 831 -506 979 -106 279 -130 470 -78 622 109 316 537 469 1445
518 404 22 1229 12 1971 -24 154 -7 281 -13 282 -12 6 5 -574 109 -812 145
-594 92 -1009 129 -1485 135 -179 2 -347 2 -375 0z"/>
<path d="M3610 4240 c-430 -32 -764 -80 -1155 -166 -311 -68 -689 -178 -682
-198 26 -67 102 -243 107 -249 4 -4 92 19 196 52 660 208 1365 363 1964 430
305 35 477 44 798 45 174 1 294 4 270 8 -115 20 -337 50 -477 64 -182 18 -843
27 -1021 14z"/>
<path d="M3835 3739 c-463 -30 -1053 -200 -1648 -473 l-79 -36 25 -43 c13 -23
48 -88 77 -144 28 -57 56 -103 61 -103 5 0 33 16 63 35 89 57 312 170 442 224
564 234 1224 350 1932 340 271 -4 266 -8 84 65 -191 77 -390 120 -622 136
-159 11 -161 11 -335 -1z"/>
<path d="M2740 1377 c-117 -27 -185 -78 -232 -175 -31 -63 -33 -73 -32 -167 1
-120 25 -193 97 -302 128 -193 329 -308 537 -308 83 0 103 4 157 29 72 33 134
94 166 164 32 69 31 221 -2 315 -46 135 -172 286 -304 365 -119 72 -278 104
-387 79z m340 -290 c137 -65 217 -244 160 -361 -75 -155 -314 -103 -410 89
-35 71 -36 176 -1 227 55 79 145 95 251 45z"/>
<path d="M5290 1379 c-294 -58 -363 -405 -138 -693 83 -106 214 -197 348 -242
38 -13 85 -18 155 -18 87 0 107 3 155 25 79 37 125 81 162 156 28 58 32 74 32
156 0 140 -48 260 -154 387 -86 103 -243 197 -375 225 -77 16 -118 17 -185 4z
m333 -290 c205 -105 249 -377 72 -444 -145 -56 -345 111 -345 287 0 96 31 146
107 174 46 17 112 10 166 -17z"/>
</g>
</svg>
